<?xml version="1.0" encoding="utf-8"?>
<!-- Generator: Adobe Illustrator 25.4.1, SVG Export Plug-In . SVG Version: 6.00 Build 0)  -->
<svg version="1.1" id="white_2" xmlns="http://www.w3.org/2000/svg" xmlns:xlink="http://www.w3.org/1999/xlink" x="0px" y="0px"
	 viewBox="0 0 180.1674347 177.0780945" style="enable-background:new 0 0 180.1674347 177.0780945;" xml:space="preserve">
<style type="text/css">
	.st0{fill:#243F1E;}
	.st1{fill:#FFFFFF;}
</style>
<g>
	<g>
		<path class="st0" d="M149.6453857,59.573307c0,26.9329872-17.865387,49.678318-42.4006119,57.0405312l-5.0826645-20.8709183
			h3.1409531c1.029808,0,1.8740997-0.8442917,1.8740997-1.8744049v-3.2758636c0-1.030014-0.8442917-1.8743057-1.8740997-1.8743057
			H94.0906143c-0.0676117-8.9832993,0.8442917-19.1148224,4.3904877-26.0886993h-0.0168991l6.6867371-14.1840706
			c0,0-1.6547775,7.5648384-1.8407059,10.0977173c-0.7935867,10.9927254-0.2700272,10.2666435-0.2700272,10.2666435
			s5.0488586,0,9.4393539-3.6474075c13.5927963-11.3134537,10.4184494-38.905014,10.4184494-38.905014
			s-22.2047577,3.3771744-31.947937,17.3755283c-6.0114746,8.6455574-0.2869339,20.3475571-0.2869339,20.3475571h0.0164948
			c-1.7050781,4.8799438-2.6004944,10.4185562-3.0053253,15.9402695c-2.9888306-3.8331223-5.9273682-7.311615-6.6702499-8.1728058
			c0.1183167-3.427887-0.3883438-9.7937889-5.1498642-13.6100121c-10.942009-8.7975769-29.2464447-6.3153-29.2464447-6.3153
			s3.6133957,22.1711617,17.6287537,27.4057426c4.2383728,1.5872726,7.9869843,0.2195206,7.9869843,0.2195206
			s-0.9457092-3.883728-2.6342926-6.2308884c-2.0769348-2.9212265-6.7877426-8.2234116-6.7877426-8.2234116
			s5.2681732,3.1238403,6.8046417,4.4578934c1.8407135,1.6209793,5.4710083,5.6736298,6.1635895,6.4504166l-0.0168991,0.0167999
			c2.0600281,2.3978653,6.973671,8.3416214,10.0639114,12.7995224H75.0940018c-1.029808,0-1.8740997,0.8442917-1.8740997,1.8743057
			v3.2758636c0,1.0301132,0.8442917,1.8744049,1.8740997,1.8744049h3.1578598l-5.0995712,20.9384232
			c-24.6535378-7.2947083-42.6368256-30.0906372-42.6368256-57.108036C30.5154629,26.6627579,57.1952248,0,90.0888748,0
			S149.6453857,26.6627579,149.6453857,59.573307z"/>
	</g>
	<g>
		<path class="st0" d="M12.7367458,168.2740326c-8.297823-0.0709076-12.8293056-4.1489258-12.7353125-15.0356903
			c0.0840996-9.8347015,5.316412-15.8931732,14.0973959-15.8173218c8.297823,0.0709076,12.9167042,4.280838,12.8243599,15.0389862
			C26.8473339,161.4141388,22.1328106,168.3548279,12.7367458,168.2740326z M13.8432322,141.7661743
			c-4.961874-0.0428772-7.8938155,3.927948-7.9548292,11.0401306c-0.0643115,7.6398621,2.1453638,10.9923096,7.2375097,11.0368347
			c5.0937948,0.0428619,7.8509417-4.0153503,7.9136038-11.1720581
			C21.0972328,145.8227386,19.1118221,141.8106995,13.8432322,141.7661743z"/>
		<path class="st0" d="M39.5166855,168.5032349c-1.142765-0.0098877-2.7208672-0.1549988-3.5074463-0.5111847l-0.0758553,8.8238525
			l-5.3592854,0.2621918l0.2539482-29.678894l4.6568089-0.3561859c0.2572441,0.6612396,0.3809204,1.5846863,0.4600716,2.5526581
			c1.8155632-1.7413483,4.0648117-2.7340546,6.5234871-2.712616c4.6089859,0.039566,7.5689621,3.1397095,7.5063019,10.3392944
			C49.9235954,163.3237,46.9801102,168.5675507,39.5166855,168.5032349z M40.41045,151.2133636
			c-1.6242752-0.0148468-3.1248741,0.8525238-4.2742348,1.8963623l-0.0939941,11.0170288
			c0.8739738,0.402359,2.2311096,0.7206268,3.416748,0.7305145c3.2485542,0.0280304,5.0278358-2.4141541,5.0690613-7.286972
			C44.5626602,153.6192627,43.1774902,151.2364349,40.41045,151.2133636z"/>
		<path class="st0" d="M62.8287544,168.702774c-6.0155907-0.0511322-9.5032501-2.8923645-9.4438858-9.8709869
			c0.0610161-7.1567078,3.7036781-11.82341,10.3327026-11.7673492c5.6198311,0.0494843,7.7404594,3.7119293,7.6893425,9.5510712
			c-0.0049515,0.5705719-0.0115433,1.4494934-0.1533585,2.5460815l-12.6017456-0.107193
			c-0.0313301,3.730072,1.4461823,5.5852051,4.9585762,5.6165314c2.1948357,0.0181427,4.7936745-0.8393402,6.8664818-1.9177856
			l1.2417068,3.566803C69.2912292,167.8353882,66.0773087,168.7308044,62.8287544,168.702774z M66.6280746,155.9163361
			c0.028038-3.2930756-1.3208542-4.928894-3.5602112-4.9486847c-2.5905991-0.0214386-3.8784752,1.7232208-4.2115746,4.8827209
			L66.6280746,155.9163361z"/>
		<path class="st0" d="M88.8204651,168.6170197l0.1236801-14.4849091c0.0131912-1.4511414-0.4617233-2.376236-2.0876465-2.3894196
			c-1.3604355-0.0115509-3.2567978,0.9382782-5.0723572,2.6334686l-0.1203842,14.1798401l-5.3559875-0.0445099l0.178093-20.7660065
			l4.655159-0.2671356c0.2588959,0.6167297,0.4254456,1.8468933,0.5013046,3.1199341
			c2.4784622-2.217926,5.078949-3.3359528,7.3611832-3.3161621c3.9081573,0.0329742,5.3411484,1.9326324,5.3065186,5.883667
			l-0.1319199,15.497406L88.8204651,168.6170197z"/>
		<path class="st0" d="M115.9516449,143.2535858c-1.1839905-0.3182678-1.884819-0.412262-2.9814072-0.4205017
			c-5.0047531-0.0428772-8.0653152,3.4876556-8.1279755,10.9510803c-0.0725555,8.3835754,3.5074463,10.6542664,7.7223206,10.6888885
			c2.8956604,0.0247345,5.6709442-0.8723297,8.0982895-2.2574921l1.4560776,4.0961456
			c-3.044075,1.8171997-6.1277237,2.8445435-10.6921844,2.8066101c-8.2104263-0.0709076-12.5159988-4.6287689-12.4285965-14.9004669
			c0.0840988-9.9237366,5.1416092-16.0267334,13.9225998-15.9525299c3.9048538,0.0329742,6.0980377,0.5788116,8.4594269,1.6968384
			l-0.6513596,9.1717987l-4.6996841,0.2226105L115.9516449,143.2535858z"/>
		<path class="st0" d="M138.9108276,169.0457611l0.1236725-14.486557c0.0131989-1.4494781-0.4633636-2.3745728-2.0876465-2.3894196
			c-1.3604279-0.0115509-3.3013153,0.9382782-5.0707092,2.6351166l-0.1203766,14.1798401l-5.3576355-0.0461578l0.2687912-31.5225067
			l5.3164139-0.2605438l-0.1170807,13.7412109c2.564209-2.2162628,4.9453888-3.2073212,7.2276154-3.1875305
			c3.9081573,0.0329742,5.3411407,1.9342804,5.3065186,5.8853149l-0.1319275,15.497406L138.9108276,169.0457611z"/>
		<path class="st0" d="M149.9311676,169.1397552l0.1764526-20.7214661l5.3576355-0.2605438l-0.1797485,21.028183
			L149.9311676,169.1397552z M150.1438904,144.3353271l0.0395813-4.7425537l5.3988647,0.0461731l-0.0395813,4.7425537
			L150.1438904,144.3353271z"/>
		<path class="st0" d="M172.0328674,166.9581146c-1.7726898,1.9178009-3.6674042,2.6466675-6.5201874,2.621933
			c-3.1611633-0.0263824-5.7781372-2.1997833-5.743515-6.195343c0.0263824-2.9847107,1.7561951-4.9882507,12.07901-5.6907349
			l0.0263824-3.0308838c0.0164948-1.8864746-0.549118-2.5493622-2.1288757-2.564209
			c-2.2393494-0.0181427-4.8381958,0.8805695-6.9126434,2.3564301l-2.0810547-3.2666931
			c2.9616241-2.1272125,6.0436249-3.2419434,10.3030243-3.2056732c4.9173431,0.0412292,6.2546997,2.6004944,6.2184143,6.9472809
			l-0.0742035,8.6045532c-0.0131989,1.5368652,0.1616058,1.8435822,2.9682159,2.2195587l-0.9118958,3.8999176
			c-0.7915344,0.0362701-1.5368805,0.0296783-2.1519623,0.0247345
			C174.0743408,169.6542511,172.5028381,168.6302185,172.0328674,166.9581146z M164.8646088,163.2099152
			c-0.0131836,1.6687927,0.9432373,2.6862335,2.6549072,2.6994324c1.7116852,0.0148315,3.3887177-0.9366455,4.2758942-1.9392395
			l0.0280304-3.3343048C166.2448425,160.9837494,164.8794556,161.6301575,164.8646088,163.2099152z"/>
	</g>
</g>
</svg>
